<?xml version="1.0" encoding="iso-8859-1"?>
<!-- Generator: Adobe Illustrator 19.0.0, SVG Export Plug-In . SVG Version: 6.00 Build 0)  -->
<svg version="1.1" id="Layer_1" xmlns="http://www.w3.org/2000/svg" xmlns:xlink="http://www.w3.org/1999/xlink" x="0px" y="0px"
	 viewBox="0 0 512 512" style="enable-background:new 0 0 512 512;" xml:space="preserve">
<polygon style="fill:#083D77;" points="378.617,467.575 378.617,399.826 489.895,399.826 478.602,433.701 489.895,467.575 "/>
<polygon style="fill:#DDB247;" points="378.617,367.618 378.617,299.87 489.895,299.87 478.602,333.744 489.895,367.618 "/>
<polygon style="fill:#083D77;" points="378.617,267.662 378.617,199.913 489.895,199.913 478.602,233.787 489.895,267.662 "/>
<path style="fill:#C13530;" d="M394.488,155.488h-26.245V69.793H22.568l-0.463,399.654c0,23.464,19.088,42.553,42.552,42.553
	h304.727c23.463,0,42.552-19.089,42.552-42.552V172.936C411.936,163.316,404.108,155.488,394.488,155.488z"/>
<path style="fill:#B22626;" d="M100.064,469.448l0.463-399.654H22.568l-0.463,399.654c0,23.463,19.088,42.552,42.552,42.552h77.96
	C119.154,512,100.064,492.912,100.064,469.448z"/>
<path style="fill:#EBEBD3;" d="M100.404,156.599c-43.175,0-78.299-35.125-78.299-78.299S57.23,0,100.404,0h262.052
	c8.911,0,16.161,7.249,16.161,16.161v139.327L100.404,156.599z"/>
<path style="fill:#DDDCC5;" d="M178.704,135.522c-43.175,0-78.299-35.125-78.299-78.299c0-22.346,9.42-42.522,24.485-56.801
	C125.051,0.269,124.946,0,124.721,0h-23.002c-44.994,0-81.76,37.312-79.517,82.249c2.065,41.348,36.351,74.35,78.202,74.35
	l277.966-1.109c0.137,0,0.247-0.111,0.247-0.248v-20.267c0-0.138-0.112-0.249-0.249-0.248L178.704,135.522z"/>
<path style="fill:#EBEBD3;" d="M222.573,423.15c-55.423,0-100.512-45.089-100.512-100.512s45.089-100.512,100.512-100.512
	s100.512,45.089,100.512,100.512S277.996,423.15,222.573,423.15z"/>
<path style="fill:#DDB247;" d="M222.573,423.15c-29.141,0-56.84-12.696-75.995-34.83l-1.964-2.269l-0.185-2.993
	c-0.103-1.65-0.155-3.295-0.155-4.887c0-26.749,14.112-52.201,36.828-66.42l5.012-3.138l4.829,3.413
	c9.312,6.579,20.249,10.058,31.63,10.058c11.382,0,22.319-3.48,31.632-10.061l4.83-3.413l5.012,3.138
	c22.715,14.218,36.825,39.669,36.825,66.423c0,1.602-0.052,3.247-0.155,4.89l-0.188,2.992l-1.961,2.267
	C279.413,410.454,251.714,423.15,222.573,423.15z"/>
<path style="fill:#F4D35E;" d="M222.573,323.193c-30.927,0-56.087-25.16-56.087-56.087c0-11.945,3.708-23.344,10.723-32.963
	l1.363-1.869l2.632-1.213c0.75-0.348,1.5-0.693,2.262-1.016l0.237-0.1c12.33-5.189,25.406-7.82,38.87-7.82
	c13.582,0,26.771,2.68,39.203,7.964l0.224,0.098c0.688,0.297,1.342,0.598,1.995,0.901l2.579,1.187l1.364,1.869
	c7.014,9.619,10.722,21.018,10.722,32.962C278.66,298.033,253.5,323.193,222.573,323.193z"/>
<path style="fill:#CE982C;" d="M268.718,314.924c-1.515-1.111-3.069-2.175-4.67-3.177l-5.012-3.138l-4.83,3.413
	c-9.313,6.582-20.251,10.061-31.632,10.061c-11.381,0-22.317-3.478-31.63-10.058l-4.829-3.413l-5.012,3.138
	c-1.603,1.003-3.156,2.067-4.671,3.179c10.131,14.639,27.03,24.254,46.142,24.254C241.686,339.182,258.587,329.566,268.718,314.924z
	"/>
<g>
</g>
<g>
</g>
<g>
</g>
<g>
</g>
<g>
</g>
<g>
</g>
<g>
</g>
<g>
</g>
<g>
</g>
<g>
</g>
<g>
</g>
<g>
</g>
<g>
</g>
<g>
</g>
<g>
</g>
</svg>
